<!DOCTYPE svg PUBLIC "-//W3C//DTD SVG 1.1//EN" "http://www.w3.org/Graphics/SVG/1.1/DTD/svg11.dtd">
<!-- Uploaded to: SVG Repo, www.svgrepo.com, Transformed by: SVG Repo Mixer Tools -->
<svg fill="#ffffff" width="64px" height="64px" viewBox="-11.2 -11.2 38.40 38.40" xmlns="http://www.w3.org/2000/svg">
<g id="SVGRepo_bgCarrier" stroke-width="0"/>
<g id="SVGRepo_tracerCarrier" stroke-linecap="round" stroke-linejoin="round"/>
<g id="SVGRepo_iconCarrier"> <path d="M9.95 5.843L7.828 7.964l2.122 2.122L8.536 11.5 5 7.964 8.536 4.43 9.95 5.843zM8 16c-4.418 0-8-3.59-8-8 0-4.418 3.59-8 8-8 4.418 0 8 3.59 8 8 0 4.418-3.59 8-8 8zm0-2c3.307 0 6-2.686 6-6 0-3.307-2.686-6-6-6-3.307 0-6 2.686-6 6 0 3.307 2.686 6 6 6z" fill-rule="evenodd"/> </g>
</svg>