<!DOCTYPE svg PUBLIC "-//W3C//DTD SVG 1.1//EN" "http://www.w3.org/Graphics/SVG/1.1/DTD/svg11.dtd">
<!-- Uploaded to: SVG Repo, www.svgrepo.com, Transformed by: SVG Repo Mixer Tools -->
<svg fill="#FFFFFF" width="64px" height="64px" viewBox="-11.2 -11.2 38.40 38.40" xmlns="http://www.w3.org/2000/svg" stroke="#FFFFFF" stroke-width="0.00016">
<g id="SVGRepo_bgCarrier" stroke-width="0"/>
<g id="SVGRepo_tracerCarrier" stroke-linecap="round" stroke-linejoin="round"/>
<g id="SVGRepo_iconCarrier"> <path d="M6.05 10.157l2.122-2.121L6.05 5.914 7.464 4.5 11 8.036 7.464 11.57 6.05 10.157zM8 0c4.418 0 8 3.59 8 8 0 4.418-3.59 8-8 8-4.418 0-8-3.59-8-8 0-4.418 3.59-8 8-8zm0 2C4.693 2 2 4.686 2 8c0 3.307 2.686 6 6 6 3.307 0 6-2.686 6-6 0-3.307-2.686-6-6-6z" fill-rule="evenodd"/> </g>
</svg>