<svg xmlns="http://www.w3.org/2000/svg" width="24" height="24" viewBox="0 0 24 24">
  <g id="Icon_ionic-ios-close-circle-outline" data-name="Icon ionic-ios-close-circle-outline" transform="translate(-3.375 -3.375)">
    <path id="Path_1" data-name="Path 1" d="M23.295,21.705,19.589,18l3.705-3.705a1.124,1.124,0,0,0-1.589-1.589L18,16.411l-3.705-3.705a1.124,1.124,0,0,0-1.589,1.589L16.411,18l-3.705,3.705a1.086,1.086,0,0,0,0,1.589,1.116,1.116,0,0,0,1.589,0L18,19.589l3.705,3.705a1.129,1.129,0,0,0,1.589,0A1.116,1.116,0,0,0,23.295,21.705Z" transform="translate(-2.623 -2.622)" fill="#9d4150"/>
    <path id="Path_2" data-name="Path 2" d="M15.375,4.99a10.381,10.381,0,1,1-7.344,3.04,10.316,10.316,0,0,1,7.344-3.04m0-1.615a12,12,0,1,0,12,12,12,12,0,0,0-12-12Z" fill="#9d4150"/>
  </g>
</svg>
